# xmcd CD database file
#
# Track frame offsets:
#	150
#	13912
#	28577
#	45717
#	59280
#	75872
#	96315
#	113987
#	132557
#	147225
#	168407
#
# Disc length: 2426 seconds
#
# Revision: 1
# Processed by: cddbd v1.5.1PL0 Copyright (c) Steve Scherf et al.
# Submitted via: CDex 1.51
#
DISCID=9209780b
DTITLE=Don Francisco - Come Away
DYEAR=1900
DGENRE=Christian Rock
TTITLE0=Come Away
TTITLE1=Cause and Effect
TTITLE2=Restin' in Jesus
TTITLE3=Forever Loved
TTITLE4=And The Spirit Sings
TTITLE5=Does God Still Get the Blues?
TTITLE6=The Fast
TTITLE7=Son of Righteousness
TTITLE8=Freedom to Move
TTITLE9=Feed My Sheep
TTITLE10=Come Away (reprise)
EXTD=
EXTT0=
EXTT1=
EXTT2=
EXTT3=
EXTT4=
EXTT5=
EXTT6=
EXTT7=
EXTT8=
EXTT9=
EXTT10=
PLAYORDER=
